#!OML:ASF X:\für Bonn\!DataBase\2005_08_11_Bastian_Final\c3d\Bastian.ASF
:FULLY-SPECIFIED
:DEGREES
69
root 2.32772 21.8975 -32.2886 544.034 -188.835 -181.871
lowerback 15.6672 -1.64161 1.09356
upperback 4.13947 -2.02809 -1.12888
thorax -4.45662 -0.997204 -1.41916
lowerneck -6.42365 -5.21325 -1.57865
upperneck -4.69854 -6.72998 8.55239
head -0.00776097 -3.33992 2.84026
rclavicle -2.54444e-014 -1.51076e-014
rhumerus -48.8028 27.3068 -86.7367
rradius 117.273
rwrist 3.17727
rhand -16.8047 22.9775
rfingers 7.12502
rthumb 9.42379 -6.79179
lclavicle -2.54444e-014 -1.51076e-014
lhumerus -22.451 -6.36417 74.4481
lradius 118.14
lwrist -139.286
lhand -34.7405 20.186
lfingers 7.12502
lthumb -7.89431 50.0186
rfemur -27.9885 -10.4819 22.4907
rtibia 93.5016
rfoot 6.33852 -3.5804
rtoes -4.3936
lfemur -30.9047 1.26725 -14.1465
ltibia 84.8719
lfoot 10.0158 -4.75076
ltoes -22.6679
70
root 2.32217 21.9799 -32.1189 543.896 -188.874 -181.943
lowerback 16.4244 -1.62294 1.20963
upperback 4.25783 -1.97244 -1.07652
thorax -4.73792 -0.969752 -1.42529
lowerneck -6.10469 -5.23149 -1.71822
upperneck -5.03916 -6.71848 8.87616
head -0.152444 -3.3477 2.98981
rclavicle 5.76476e-015 -1.03368e-014
rhumerus -49.2831 26.7919 -87.5421
rradius 115.797
rwrist 2.88031
rhand -16.8254 23.3071
rfingers 7.12502
rthumb 9.40381 -6.46315
lclavicle 5.76476e-015 -1.03368e-014
lhumerus -23.3367 -6.5886 74.4952
lradius 117.597
lwrist -139.861
lhand -34.6938 19.6763
lfingers 7.12502
lthumb -7.84922 49.5106
rfemur -29.5083 -11.0412 22.5859
rtibia 94.6047
rfoot 4.39382 -2.34012
rtoes -4.84918
lfemur -32.4709 1.70002 -14.3112
ltibia 85.8386
lfoot 8.97651 -5.58661
ltoes -24.1148
71
root 2.31725 22.0532 -31.9477 543.909 -188.96 -181.876
lowerback 17.065 -1.62813 1.18412
upperback 4.30486 -1.97287 -1.03644
thorax -5.02881 -0.969484 -1.35493
lowerneck -5.60011 -5.22756 -1.81934
upperneck -5.61747 -6.66347 9.0776
head -0.414126 -3.34517 3.10457
rclavicle 6.36111e-015 2.06736e-014
rhumerus -49.6403 26.3035 -88.2808
rradius 114.068
rwrist 2.57514
rhand -16.5314 23.1617
rfingers 7.12502
rthumb 9.68745 -6.59554
lclavicle 6.36111e-015 2.06736e-014
lhumerus -24.3001 -6.8298 74.6066
lradius 116.808
lwrist -140.563
lhand -34.6948 18.7099
lfingers 7.12502
lthumb -7.85024 48.5441
rfemur -31.1345 -11.6018 22.5752
rtibia 95.4557
rfoot 2.51886 -1.02858
rtoes -6.08507
lfemur -34.0841 2.00654 -14.6617
ltibia 86.5915
lfoot 7.89948 -6.36852
ltoes -25.0165
72
root 2.31412 22.1179 -31.7701 544.053 -189.023 -181.679
lowerback 17.5027 -1.61472 1.04229
upperback 4.32356 -1.97424 -1.03066
thorax -5.23809 -0.96861 -1.2588
lowerneck -5.14397 -5.21695 -1.87357
upperneck -6.1659 -6.60387 9.2423
head -0.66268 -3.33962 3.19866
rclavicle 9.14409e-015 2.54444e-014
rhumerus -49.9087 25.7425 -88.9793
rradius 111.936
rwrist 2.53744
rhand -16.2831 22.8933
rfingers 7.12502
rthumb 9.92706 -6.85262
lclavicle 9.14409e-015 2.54444e-014
lhumerus -25.2499 -7.01567 74.7567
lradius 115.782
lwrist -141.357
lhand -34.6167 17.7219
lfingers 7.12502
lthumb -7.7748 47.5589
rfemur -32.7932 -12.0332 22.4659
rtibia 96.03
rfoot 0.777985 0.228302
rtoes -7.66148
lfemur -35.6817 2.28049 -15.1918
ltibia 87.1099
lfoot 6.94316 -7.0679
ltoes -25.035
73
root 2.31091 22.1762 -31.5877 544.187 -189.056 -181.266
lowerback 17.8901 -1.57191 0.667777
upperback 4.38301 -1.98363 -1.07659
thorax -5.37101 -0.968573 -1.08548
lowerneck -4.73045 -5.20826 -1.96019
upperneck -6.71311 -6.54336 9.46193
head -0.902001 -3.33279 3.31803
rclavicle 4.17448e-015 1.59028e-015
rhumerus -49.9264 25.1051 -89.5306
rradius 109.353
rwrist 2.7941
rhand -16.0811 22.8411
rfingers 7.12502
rthumb 10.1219 -6.89545
lclavicle 4.17448e-015 1.59028e-015
lhumerus -26.1445 -7.18793 74.9596
lradius 114.502
lwrist -142.284
lhand -34.5068 17.1159
lfingers 7.12502
lthumb -7.66874 46.9569
rfemur -34.2948 -12.4006 22.1118
rtibia 96.3193
rfoot -0.916677 1.29729
rtoes -8.60024
lfemur -37.0788 2.50162 -15.9926
ltibia 87.3642
lfoot 6.07619 -7.60579
ltoes -24.7379
74
root 2.30888 22.2241 -31.3992 544.308 -189.061 -180.855
lowerback 18.2238 -1.51795 0.309984
upperback 4.46166 -1.97853 -1.12526
thorax -5.45444 -0.961288 -0.929222
lowerneck -4.50162 -5.22351 -2.08959
upperneck -7.15817 -6.52009 9.69375
head -1.07394 -3.33728 3.44154
rclavicle 2.22639e-014 2.38542e-015
rhumerus -49.781 24.3149 -89.9254
rradius 106.65
rwrist 3.06519
rhand -15.6514 22.8132
rfingers 7.12502
rthumb 10.5365 -6.90268
lclavicle 2.22639e-014 2.38542e-015
lhumerus -26.9512 -7.36495 75.2617
lradius 112.839
lwrist -143.251
lhand -34.3907 17.0554
lfingers 7.12502
lthumb -7.55667 46.9004
rfemur -35.6516 -12.685 21.7637
rtibia 96.2866
rfoot -2.5376 2.16846
rtoes -8.27165
lfemur -38.3127 2.69251 -16.7886
ltibia 87.3754
lfoot 5.2349 -8.09668
ltoes -24.6486
75
root 2.30918 22.2571 -31.206 544.322 -189.054 -180.771
lowerback 18.5825 -1.49459 0.273444
upperback 4.54466 -1.95073 -1.09382
thorax -5.55328 -0.946107 -0.874714
lowerneck -4.3587 -5.2559 -2.16824
upperneck -7.55806 -6.52615 9.87251
head -1.21906 -3.3542 3.53399
rclavicle 4.81059e-014 5.96354e-015
rhumerus -49.5359 23.4474 -90.2776
rradius 103.771
rwrist 3.52577
rhand -15.4662 22.9706
rfingers 7.12502
rthumb 10.7151 -6.73618
lclavicle 4.81059e-014 5.96354e-015
lhumerus -27.7491 -7.49213 75.5862
lradius 110.938
lwrist -144.383
lhand -34.2769 17.2663
lfingers 7.12502
lthumb -7.44686 47.1152
rfemur -36.7709 -12.8238 21.7858
rtibia 95.9125
rfoot -3.95454 2.90505
rtoes -7.98666
lfemur -39.3295 2.90131 -17.2099
ltibia 87.1374
lfoot 4.44652 -8.557
ltoes -25.0253
76
root 2.308 22.2748 -31.0038 544.218 -189.06 -180.965
lowerback 18.9084 -1.4854 0.478541
upperback 4.64913 -1.88952 -0.973851
thorax -5.6151 -0.91705 -0.871936
lowerneck -4.20524 -5.29359 -2.19608
upperneck -8.00403 -6.54032 9.96649
head -1.38582 -3.37691 3.59056
rclavicle 3.47873e-014 1.63003e-014
rhumerus -49.2086 22.4035 -90.4982
rradius 100.59
rwrist 4.49039
rhand -15.6135 23.5746
rfingers 7.12502
rthumb 10.573 -6.13941
lclavicle 3.47873e-014 1.63003e-014
lhumerus -28.4794 -7.55644 75.9854
lradius 108.885
lwrist -145.564
lhand -34.0867 17.3435
lfingers 7.12502
lthumb -7.2633 47.1988
rfemur -37.617 -12.8428 22.1315
rtibia 95.2156
rfoot -5.52532 3.45421
rtoes -8.02764
lfemur -40.0314 3.11993 -17.2677
ltibia 86.6114
lfoot 3.75796 -8.91882
ltoes -25.4861
77
root 2.30693 22.2818 -30.792 544.138 -189.124 -181.152
lowerback 19.0947 -1.51149 0.693444
upperback 4.74376 -1.87264 -0.864141
thorax -5.61466 -0.909868 -0.878242
lowerneck -3.97701 -5.33695 -2.16483
upperneck -8.51009 -6.564 9.95514
head -1.5911 -3.40769 3.60563
rclavicle -1.19271e-014 -4.77083e-015
rhumerus -48.8424 21.3655 -90.698
rradius 97.3666
rwrist 5.44279
rhand -15.8207 23.8347
rfingers 7.12502
rthumb 10.3731 -5.88945
lclavicle -1.19271e-014 -4.77083e-015
lhumerus -29.1889 -7.54184 76.3377
lradius 106.749
lwrist -146.841
lhand -33.6637 17.241
lfingers 7.12502
lthumb -6.85495 47.11
rfemur -38.2703 -12.8879 22.4627
rtibia 94.2188
rfoot -7.40255 3.97298
rtoes -9.14562
lfemur -40.545 3.24166 -17.3122
ltibia 85.8233
lfoot 3.20594 -9.12379
ltoes -26.2578
